# xmcd
#
# Track frame offsets: 
#        150
#        17065
#        28527
#        43402
#        55673
#        68141
#        82918
#        94773
#        111374
#        123105
#
# Disc length: 1803 seconds
#
# Revision: 0
# Processed by: cddbd v1.5PL3 Copyright (c) Steve Scherf et al.
# Submitted via: ExactAudioCopy v0.95a3
#
DISCID=7a07090a
DTITLE=B.J.Thomas - Night Life
DYEAR=1986
DGENRE=Country
TTITLE0=Night Life
TTITLE1=He'll Have To Go
TTITLE2=Don't Worry
TTITLE3=Am I That Easy To Forget
TTITLE4=Husbands And Wives
TTITLE5=Bad News
TTITLE6=I'm Sorry
TTITLE7=My Elusive Dreams
TTITLE8=Make The World Go Away
TTITLE9=Crazy
EXTD=
EXTT0=
EXTT1=
EXTT2=
EXTT3=
EXTT4=
EXTT5=
EXTT6=
EXTT7=
EXTT8=
EXTT9=
PLAYORDER=
